<?xml version="1.0" standalone="no"?>
<!DOCTYPE svg PUBLIC "-//W3C//DTD SVG 20010904//EN"
 "http://www.w3.org/TR/2001/REC-SVG-20010904/DTD/svg10.dtd">
<svg version="1.0" xmlns="http://www.w3.org/2000/svg"
 width="1024.000000pt" height="1024.000000pt" viewBox="0 0 1024.000000 1024.000000"
 preserveAspectRatio="xMidYMid meet">

<g transform="translate(0.000000,1024.000000) scale(0.100000,-0.100000)"
fill="#000000" stroke="none">
<path d="M3137 8580 c-105 -27 -205 -109 -254 -208 -27 -54 -28 -66 -33 -229
l-5 -172 -285 -4 c-321 -6 -382 -16 -508 -82 -143 -75 -241 -175 -312 -320
-82 -165 -75 50 -75 -2335 l0 -2125 23 -75 c41 -129 88 -206 187 -306 97 -97
169 -141 300 -185 l70 -24 1155 -3 c1113 -2 1156 -2 1190 16 92 50 106 188 25
262 l-27 25 -1151 5 -1152 5 -58 23 c-115 47 -203 140 -239 254 -17 57 -18
132 -18 1689 l0 1629 2680 0 2680 0 0 -345 c0 -295 2 -351 16 -376 15 -30 65
-59 102 -59 12 0 55 38 106 94 l87 95 -3 768 c-4 858 0 809 -77 968 -91 188
-256 323 -458 376 -67 18 -118 21 -370 26 l-293 5 -3 161 c-2 152 -4 166 -30
220 -53 115 -129 184 -239 219 -73 22 -128 23 -199 2 -108 -32 -190 -102 -238
-204 -24 -51 -26 -68 -31 -228 l-5 -172 -1050 0 -1050 0 -5 172 c-5 164 -6
176 -33 230 -60 123 -181 205 -314 213 -37 2 -85 0 -106 -5z m-287 -1085 c5
-151 7 -163 34 -218 35 -68 117 -150 183 -180 40 -18 66 -22 153 -22 90 0 112
3 153 24 75 37 142 104 179 179 32 65 33 69 36 224 l4 158 1053 0 1053 0 4
-157 c3 -146 5 -162 29 -213 37 -77 97 -141 171 -181 60 -33 67 -34 168 -34
96 0 110 2 158 28 107 56 179 155 202 277 5 29 10 104 10 167 l0 115 278 -4
c248 -5 283 -7 334 -26 113 -41 192 -115 245 -228 l28 -59 3 -312 3 -313
-2681 0 -2681 0 3 313 3 312 33 68 c61 122 180 215 304 236 29 5 161 8 293 7
l240 -1 5 -160z"/>
<path d="M8012 6029 c-147 -149 -278 -287 -292 -306 l-25 -35 -6 -312 c-3
-171 -6 -313 -7 -315 -1 -1 -245 -249 -543 -549 l-541 -545 -86 -1 c-102 -2
-157 -24 -221 -87 -60 -61 -85 -120 -85 -209 -1 -62 4 -85 27 -132 54 -111
153 -172 277 -173 171 0 288 114 298 291 l4 82 537 535 c467 466 541 537 576
545 22 6 145 13 274 17 169 4 241 10 260 20 14 7 160 148 323 312 324 326 327
329 294 406 -29 70 -46 74 -337 82 l-259 8 0 241 c0 145 -5 257 -11 281 -6 22
-28 56 -49 77 -34 34 -43 38 -90 38 l-51 0 -267 -271z"/>
<path d="M5152 5940 c-13 -6 -357 -340 -764 -743 -406 -402 -745 -733 -753
-735 -7 -2 -150 133 -316 299 -306 305 -347 338 -414 339 -72 0 -145 -75 -145
-149 0 -71 32 -108 417 -493 333 -331 383 -378 421 -388 32 -8 52 -8 77 0 25
8 249 226 834 808 859 857 850 847 838 934 -13 94 -116 161 -195 128z"/>
<path d="M6235 5515 c-1059 -162 -1742 -1168 -1524 -2244 47 -233 171 -522
304 -706 430 -598 1155 -870 1884 -709 532 118 967 455 1225 946 139 265 206
547 206 866 0 328 -55 571 -189 837 l-66 130 -40 3 c-49 4 -73 -13 -173 -120
l-73 -76 35 -64 c127 -230 196 -577 168 -846 -42 -403 -193 -720 -472 -985
-275 -261 -620 -398 -1005 -399 -497 0 -970 258 -1252 684 -105 159 -171 316
-219 523 -25 109 -28 137 -28 315 -1 219 11 299 69 476 73 223 202 431 375
604 268 268 594 414 970 436 256 14 550 -57 784 -191 44 -25 83 -45 86 -45 4
0 51 47 104 104 84 91 96 108 96 139 0 33 -5 38 -57 70 -201 121 -407 198
-648 244 -113 21 -444 26 -560 8z"/>
<path d="M6334 4736 c-158 -30 -267 -74 -403 -162 -98 -64 -248 -210 -309
-300 -199 -296 -239 -624 -116 -964 208 -580 843 -871 1397 -640 223 93 427
280 545 500 107 198 146 440 107 661 -19 112 -77 279 -95 279 -12 0 -144 -126
-198 -188 l-49 -57 14 -80 c27 -151 -1 -318 -80 -470 -31 -61 -63 -102 -132
-170 -102 -102 -167 -144 -292 -188 -82 -29 -97 -32 -223 -32 -126 0 -141 3
-223 32 -119 42 -188 85 -278 173 -90 89 -146 179 -191 310 -30 89 -32 103
-33 235 0 128 3 147 28 220 40 115 100 209 186 295 88 87 173 140 286 177 69
23 97 27 205 27 89 0 142 -4 185 -17 l60 -17 117 123 c64 67 116 127 114 132
-4 18 -121 74 -211 100 -111 33 -299 42 -411 21z"/>
</g>
</svg>
